<svg xmlns="http://www.w3.org/2000/svg" viewBox="0 0 58 58">
  <path d="M29 1.5c-16.016 0-29 11.64-29 26 0 5.292 1.768 10.21 4.796 14.318C4.398 46.563 3.254 53.246 0 56.5c0 0 9.943-1.395 16.677-5.462l.022.01c2.762-1.802 5.53-3.657 6.103-4.127.3-.42.88-.546 1.33-.275.296.178.483.503.49.848.01.622-.006.784-5.586 4.42 3.108 1.02 6.46 1.588 9.962 1.588 16.015 0 29-11.64 29-26s-12.985-26-29-26z" fill="#000c28"/>
  <circle cx="15" cy="27.5" r="3" fill="#FFF"/>
  <circle cx="29" cy="27.5" r="3" fill="#FFF"/>
  <circle cx="43" cy="27.5" r="3" fill="#FFF"/>
</svg>