<svg xmlns="http://www.w3.org/2000/svg" width="48.625" height="48.625" viewBox="0 0 48.625 48.625">
  <path fill="#696969" d="M35.432 10.815l.047.36-.55.113-.07.77h.65l.86-.084.44-.53-.48-.183-.26-.29-.39-.63-.19-.89-.73.15-.21.32v.36l.35.24"/>
  <path fill="#696969" d="M34.81 11.11l.038-.48-.43-.186-.6.14-.444.713v.463h.52M22.46 13.158l-.133.34h-.64v.33h.153l.022.162.392-.033.245-.152.06-.307.31-.027.12-.25-.29-.06-.26.01zm-1.648.6l-.025.322.463-.04.048-.323-.278-.22"/>
  <path fill="#696969" d="M48.62 24.06c-.008-.71-.044-1.416-.11-2.11-.226-2.318-.78-4.54-1.61-6.62-.062-.156-.12-.313-.185-.466-1.106-2.613-2.66-4.992-4.56-7.045-.125-.14-.252-.27-.38-.4-.358-.38-.727-.74-1.11-1.09C36.345 2.4 30.605 0 24.313 0c-6.345 0-12.126 2.445-16.46 6.44-1.01.93-1.938 1.947-2.78 3.035C1.896 13.583 0 18.73 0 24.312 0 37.72 10.907 48.625 24.313 48.625c9.43 0 17.617-5.4 21.647-13.268.862-1.682 1.533-3.475 1.985-5.354.115-.477.214-.956.3-1.44.245-1.382.38-2.802.38-4.25 0-.085-.005-.168-.006-.252zm-4.577-9.716l.14-.158c.186.36.36.724.524 1.094l-.23-.01-.434.06v-.986zm-3.513-4.242l.004-1.086c.382.405.75.822 1.102 1.254l-.438.652-1.53-.014-.097-.32.96-.486zm-29.328-2.7v-.04h.487l.04-.167h.79v.348l-.23.306H11.2l.002-.45zm.778 1.086s.487-.083.53-.083 0 .486 0 .486l-1.1.07-.208-.25.778-.22zm33.612 9.65h-1.78l-1.083-.806-1.15.11v.697h-.36l-.39-.28-1.98-.5v-1.28l-2.51.19-.78.41h-.99l-.49-.05-1.21.67v1.26l-2.47 1.78.2.76h.5l-.13.72-.36.13-.02 1.89 2.13 2.43h.93l.05-.15h1.67l.48-.45h.95l.52.52 1.41.14-.19 1.87 1.56 2.76-.82 1.57.05.74.64.65v1.78l.85 1.15v1.48h.74c-4.098 5.03-10.33 8.25-17.307 8.25C12.01 46.62 2 36.61 2 24.31c0-3.1.636-6.05 1.78-8.73v-.69l.8-.97c.276-.52.573-1.03.89-1.53l.036.41-.926 1.13c-.287.54-.555 1.096-.798 1.665v1.27l.927.45v1.77l.88 1.52.72.11.09-.52-.86-1.31-.17-1.28h.5l.22 1.3 1.23 1.8-.32.58.78 1.2 1.95.48v-.314l.78.11-.08.56.61.12.94.26 1.33 1.52 1.7.13.16 1.39-1.17.818-.06 1.24-.17.76 1.69 2.11.13.72s.61.16.69.16c.07 0 1.37.99 1.37.99v3.82l.46.13-.314 1.76.78 1.04-.14 1.745 1.03 1.81 1.32 1.15 1.33.026.13-.423-.975-.82.056-.41.18-.5.04-.51-.66-.02-.33-.415.55-.526.073-.4-.616-.17.034-.37.874-.13 1.322-.63.44-.815 1.39-1.78-.32-1.39.42-.74 1.28.04.86-.682.28-2.682.954-1.214.17-.78-.87-.28-.57-.94-1.96-.02-1.56-.6-.076-1.11-.52-.91-1.41-.02-.816-1.276-.72-.35-.038.39-1.32.075-.48-.67-1.37-.28-1.13 1.31-1.78-.3-.13-2.01-1.3-.22.52-.98-.15-.566L10.92 22l-1.075-.13-.385-.84.235-.87.59-1.09 1.366-.69h2.63v.805l.95.44-.07-1.375.68-.685 1.37-.905.1-.634 1.37-1.43 1.46-.81-.13-.105.99-.93.36.1.17.21.38-.41.09-.04-.41-.06-.42-.14V12l.22-.18h.49l.22.094.2.39.24-.037v-.035l.07.02.69-.106.1-.33.39.1v.365l-.36.25h.006l.05.4 1.24.38v.02l.285-.02.02-.53-.98-.44-.06-.26.816-.28.033-.78-.85-.52-.05-1.31-1.17.578h-.43l.114-1-1.59-.377-.656.5v1.51l-1.185.37-.47.99-.51.085v-1.25l-1.11-.15-.556-.36-.227-.82 1.99-1.16.97-.3.1.656.54-.026.04-.33.57-.08.01-.116-.24-.1-.057-.35.698-.06.42-.44.028-.03h.007l.13-.13L22.8 6.6l.643.55-1.7.9 2.166.51.28-.73h.95l.33-.63-.67-.2v-.79l-2.1-.928-1.45.167-.82.42.05 1.04-.856-.13-.13-.58.816-.74-1.482-.08-.424.13-.183.5.56.09-.11.55-.94.05-.15.37-1.37.04s-.04-.78-.09-.78l1.08-.02.82-.8-.44-.23-.59.57L16 5.8l-.59-.82h-1.26L12.83 6h1.206l.11.35-.314.293 1.336.036.206.48-1.5-.05-.073-.37-.94-.21-.5-.28-1.12.01C14.89 3.58 19.42 2 24.32 2c5.64 0 10.792 2.11 14.73 5.574l-.27.474-1.03.403-.433.48.1.55.53.08.32.8.917-.37.16 1.07h-.273l-.75-.11-.83.14-.8 1.14-1.15.18-.16.99.49.12-.14.64-1.14-.23-1.05.23-.22.59.18 1.23.62.29 1.04-.01.7-.06.22-.55 1.09-1.42.72.15.71-.64.13.5 1.74 1.18-.213.29-.79-.04.3.43.49.11.57-.234-.01-.685.25-.126-.2-.22-1.16-.65-.306-.86h.96l.31.3.83.72.036.87.86.916.32-1.256.6-.33.11 1.028.58.64 1.16-.02c.23.58.43 1.17.608 1.77l-.12.11zm-32.33-7.092l.583-.278.528.126-.182.71-.57.18-.36-.738zm3.098 1.67v.458h-1.334l-.5-.14.125-.32.65-.264h.88v.265h.19zm.614.64v.444l-.334.215-.416.077v-.737h.75zm-.376-.182v-.53l.46.42-.46.11zm.21 1.07v.433l-.32.32h-.71l.112-.486.335-.02.07-.16.512-.07zm-1.767-.89h.74l-.94 1.322-.39-.21.09-.555.52-.55zm3.02.738v.432h-.71l-.19-.28v-.402h.06l.85.25zm-.65-.594l.2-.212.34.212-.27.225-.27-.225zm28.55 5.767l.07-.082.09.38-.16-.298z"/>
  <path fill="#696969" d="M3.782 14.884v.696c.243-.568.51-1.122.798-1.665l-.798.97z"/>
</svg>