<svg xmlns="http://www.w3.org/2000/svg" viewBox="0 0 458.246 458.246">
  <path d="M160.777 259.368h71.594c-12.56 35.53-46.6 61.004-86.45 60.71-48.342-.357-88.32-39.035-90.2-87.35-2.01-51.788 39.54-94.562 90.89-94.562 23.48 0 44.905 8.946 61.058 23.605 3.826 3.48 9.65 3.5 13.413-.04l26.296-24.75c4.113-3.87 4.128-10.407.028-14.29-25.616-24.27-59.98-39.397-97.875-40.137C68.694 80.97.567 147.238.004 228.078c-.57 81.447 65.284 147.65 146.6 147.65 78.2 0 142.08-61.23 146.36-138.36.113-.967.19-33.65.19-33.65h-132.38c-5.425 0-9.823 4.4-9.823 9.826v36c0 5.425 4.4 9.823 9.824 9.823zm253.687-52.378v-35.173c0-4.755-3.854-8.61-8.61-8.61H376.25c-4.753 0-8.607 3.855-8.607 8.61v35.173H332.47c-4.756 0-8.61 3.854-8.61 8.61v29.603c0 4.755 3.854 8.61 8.61 8.61h35.172v35.172c0 4.755 3.854 8.61 8.61 8.61h29.603c4.755 0 8.61-3.855 8.61-8.61v-35.173h35.172c4.755 0 8.61-3.854 8.61-8.61V215.6c0-4.756-3.855-8.61-8.61-8.61h-35.173z" fill="#fff"/>
</svg>