<svg xmlns="http://www.w3.org/2000/svg" viewBox="0 0 23.625 23.625">
  <path d="M11.812 0C5.29 0 0 5.29 0 11.812s5.29 11.813 11.812 11.813 11.813-5.29 11.813-11.813S18.335 0 11.812 0zm2.46 18.307c-.61.24-1.093.422-1.456.548-.362.126-.783.19-1.262.19-.736 0-1.31-.18-1.717-.54s-.61-.814-.61-1.367c0-.215.014-.435.044-.66.04-.223.08-.475.15-.758l.76-2.688c.07-.258.13-.503.17-.73.05-.23.07-.442.07-.634 0-.342-.07-.582-.21-.717-.14-.13-.41-.2-.81-.2-.193 0-.4.03-.602.09-.205.07-.383.12-.53.18l.2-.83c.5-.2.977-.37 1.43-.52.457-.14.887-.22 1.29-.22.73 0 1.297.18 1.694.53.395.36.594.82.594 1.38 0 .12-.013.327-.04.62-.027.296-.08.565-.152.81l-.755 2.68c-.06.217-.117.46-.167.738-.05.275-.073.485-.073.626 0 .356.08.6.24.728.158.13.435.195.827.195.186 0 .393-.03.627-.095.23-.064.4-.12.505-.17l-.204.827zM14.136 7.43c-.353.327-.778.49-1.275.49-.49 0-.92-.163-1.28-.49-.35-.33-.53-.728-.53-1.194 0-.465.18-.865.53-1.196.36-.332.79-.497 1.28-.497.5 0 .93.165 1.28.497.357.33.53.73.53 1.196 0 .467-.173.865-.53 1.193z" fill="#030104"/>
</svg>