<svg xmlns="http://www.w3.org/2000/svg" xmlns:xlink="http://www.w3.org/1999/xlink" xmlns:fi="http://pattern.flaticon.com/" width="1920" height="1080" viewBox="0 0 1680 945">
  <rect width="100%" height="100%" fill="#fff"/>
  <defs>
    <g id="a" fill="#34b9f5">
      <path d="M141.718 23.935c-10.56 6.76-14.542 19.466-8.873 28.324 5.67 8.85 18.875 10.56 29.437 3.8.46-.3.92-.61 1.36-.93 1.916-1.4 2.415-4.06 1.136-6.06l-3.83-5.99c-.9-1.41-.49-3.28.916-4.18l7.912-5.07c2.063-1.32 2.692-4.05 1.38-6.11-5.67-8.86-18.876-10.57-29.438-3.81zm27.267 8.678l-7.912 5.064c-2.086 1.336-2.697 4.12-1.362 6.206l3.84 5.986c.86 1.34.53 3.13-.76 4.08-.41.3-.84.59-1.29.88-9.88 6.32-22.17 4.81-27.41-3.37s-1.45-19.98 8.43-26.3 22.18-4.82 27.43 3.39c.86 1.35.43 3.16-.95 4.05z"/>
      <path d="M153.31 24.355c-3.066 1.962-3.964 6.054-2.002 9.12s6.054 3.964 9.12 2.002 3.964-6.054 2.002-9.12-6.054-3.964-9.12-2.002zm6.327 9.886c-2.385 1.53-5.567.83-7.093-1.55s-.828-5.56 1.557-7.09 5.57-.82 7.1 1.56.83 5.57-1.55 7.1zm-18.017-5.01c-2.045 1.31-2.644 4.04-1.335 6.08s4.035 2.65 6.08 1.34 2.643-4.03 1.334-6.08-4.04-2.64-6.08-1.33zm3.954 6.18c-1.363.87-3.18.48-4.054-.89s-.473-3.18.89-4.05 3.18-.47 4.054.89.473 3.18-.89 4.06zm-3.856 10.31c2.045-1.31 2.643-4.03 1.335-6.08s-4.036-2.64-6.08-1.33-2.643 4.04-1.335 6.08 4.036 2.64 6.08 1.34zm-3.954-6.18c1.363-.87 3.18-.47 4.053.89s.473 3.18-.89 4.06-3.18.48-4.053-.89-.473-3.18.89-4.05zm3.51 8.21c-1.704 1.09-2.203 3.37-1.113 5.07 1.09 1.71 3.37 2.21 5.07 1.12 1.71-1.09 2.2-3.36 1.11-5.07-1.09-1.7-3.36-2.2-5.06-1.11zm3.163 4.95c-1.022.65-2.386.36-3.04-.67s-.355-2.38.667-3.04 2.386-.35 3.04.67.355 2.39-.667 3.04zm6.18-3.95c-1.705 1.09-2.204 3.37-1.113 5.07 1.09 1.71 3.363 2.21 5.066 1.12 1.704-1.09 2.203-3.36 1.113-5.07-1.09-1.7-3.364-2.2-5.067-1.11zm3.163 4.95c-1.022.66-2.386.36-3.04-.66s-.355-2.38.667-3.04 2.386-.35 3.04.67.355 2.388-.667 3.04z"/>
    </g>
    <path d="M337.552 109.336l-10.07 10.07-1.006 1.007-4.846 4.846c-.923.92-1.267 2.27-.9 3.52l1.51 5.13c.254.86.016 1.8-.622 2.43-.346.34-.78.58-1.26.67-1.17.23-2.232.8-3.073 1.64-1.65 1.65-2.848 3.71-3.462 5.96l-.247.9c-.298 1.09.015 2.27.816 3.07.802.8 1.978 1.11 3.07.81l.906-.25c2.253-.62 4.315-1.81 5.965-3.46.842-.84 1.412-1.91 1.645-3.08.096-.48.33-.914.675-1.26.638-.638 1.572-.877 2.438-.62l5.13 1.506c1.25.37 2.6.024 3.52-.9l4.85-4.847 1.01-1.01 10.07-10.07-16.11-16.11zm1.007 29.202l-3.03-3.02-1.01 1.006 3.02 3.02-.82.82c-.56.553-1.37.76-2.12.54l-5.13-1.51c-1.37-.4-2.84-.026-3.85.98-.55.546-.92 1.233-1.07 1.988-.18.892-.61 1.703-1.257 2.346-1.478 1.476-3.32 2.545-5.335 3.094l-.908.248c-.603.163-1.25-.008-1.69-.45s-.614-1.088-.45-1.69l.246-.904c.55-2.013 1.62-3.857 3.093-5.332.646-.643 1.46-1.077 2.35-1.256.757-.15 1.444-.518 1.99-1.063 1.006-1.007 1.38-2.482.98-3.848l-1.51-5.128c-.22-.75-.01-1.56.54-2.12l.82-.82 10.07 10.07 1.006-1.01-10.067-10.07 3.02-3.02 14.1 14.09-3.02 3.02zm4.02-4.028l-14.1-14.097 9.06-9.063 1.51 1.51-6.04 6.043 1 1.007 6.04-6.042 3.02 3.02-3.53 3.525 1 1.007 3.52-3.524 3.53 3.524-5.038 5.035 1.01 1.007 5.034-5.035 3.02 3.02-9.06 9.063z" id="c" fill="#34b9f5"/>
    <g id="e" fill="#34b9f5">
      <path d="M174.007 176.866l-2.03-.312v-7.81H156v-2.556h-3.835v2.557h-15.977v25.563h6.83l-3.196 11.504h5.16l1.42-5.113h15.36l1.42 5.11h5.162l-3.196-11.51h6.83v-12.92l2.03-.31c1.045-.16 1.804-1.05 1.804-2.11s-.76-1.95-1.805-2.11zm-20.563-9.4h1.278v1.28h-1.278v-1.28zm-9.433 37.067h-2.5l2.84-10.225h2.51l-2.84 10.225zm2.75-5.112l.36-1.27h10.17v-1.28h-9.81l.71-2.55H160l.71 2.56h-2.143v1.28h2.498l.357 1.28h-14.65zm19.91 5.12h-2.51l-2.84-10.22h2.51l2.84 10.23zm4.04-11.5h-33.24v-23.01h33.23v6.34l-1.51-.23c-1.5-.23-3.04-.35-4.57-.35h-16.16c-.41-.17-1.73-.63-3.96-.63-3.46 0-6.14 3.3-6.25 3.44l-.32.4.32.4c.11.14 2.79 3.44 6.25 3.44 2.23 0 3.55-.462 3.97-.64h16.16c1.53 0 3.06-.12 4.57-.35l1.52-.23v11.448zm-23.01-16.18v4.24c-.51.17-1.57.44-3.19.44-2.19 0-4.12-1.75-4.89-2.55.77-.8 2.7-2.55 4.89-2.55 1.63 0 2.69.27 3.2.44zm26.12 2.96l-4.82.75c-1.44.22-2.91.34-4.37.34h-15.65v-3.83h15.65c1.46 0 2.93.11 4.38.33l4.82.74c.42.07.72.42.72.84s-.3.78-.72.84z"/>
      <path d="M168.143 190.474h1.278v1.278h-1.27zm0-2.557h1.278v1.278h-1.27zm-2.557 2.557h1.278v1.278h-1.278zm-2.556 0h1.278v1.278h-1.278zm2.556-2.557h1.278v1.278h-1.278zm2.557-2.557h1.278v1.28h-1.27z"/>
    </g>
    <g id="g" fill="#34b9f5">
      <path d="M248.613 326.12v-.926h-.082l-3.47-39.138c-.17-1.95-1.46-3.518-3.21-4.127V271h-9.68v10.93c-1.74.608-3.03 2.174-3.21 4.126l-3.48 39.138h-.08v.925l-.09 1.01h.09V331h23.23v-3.87h.09l-.09-1.01zm-14.516-46.41h3.87v-1.936h-3.87v-.968h3.87v-1.935h-3.87v-1.93h5.806v8.71h-5.806v-1.93zm-3.22 6.516c.134-1.507 1.376-2.645 2.89-2.645h6.465c1.515 0 2.758 1.14 2.892 2.65l.54 6.07h-13.327l.54-6.06zm-.712 8h13.67l1.55 17.42h-16.77l1.55-17.42zm-1.72 19.355h17.11l1.032 11.62h-19.174l1.03-11.61zm18.232 15.49h-19.354v-1.93h19.354v1.94z"/>
      <path d="M237 296.16c-2.668 0-4.84 2.172-4.84 4.84 0 2.668 2.172 4.84 4.84 4.84 2.668 0 4.84-2.172 4.84-4.84 0-2.668-2.172-4.84-4.84-4.84zm0 7.743c-1.6 0-2.903-1.302-2.903-2.903s1.302-2.903 2.903-2.903 2.903 1.302 2.903 2.903-1.302 2.903-2.903 2.903zm-5.806 3.87h7.74v1.937h-7.74zm9.676 0h1.936v1.937h-1.935z"/>
    </g>
    <g id="i" fill="#34b9f5">
      <path d="M46.283 243.767h1.434v2.87h-1.434zm-5.458 1.457l1.39 2.407-1.242.72-1.39-2.4zm-5.24 4.648l2.406 1.39-.71 1.24-2.4-1.388zm-2.212 6.804h2.87v1.435h-2.87zm4.685 6.708l-2.406 1.39-.718-1.242 2.407-1.39zm21.212.186l-.717 1.24-2.484-1.433.71-1.243zm-1.512-6.894h2.87v1.435h-2.87zm.652-6.776l.716 1.242-2.484 1.434-.717-1.242zm-5.286-4.728l1.242.717-1.434 2.48-1.242-.72zm1.766 22.262h-1.435V266h1.434v-1.434h-1.44v-.458c1.82-1.757 2.87-4.186 2.87-6.714 0-5.14-4.19-9.324-9.33-9.324s-9.33 4.183-9.33 9.324c0 2.528 1.04 4.957 2.87 6.714v.458H39.1V266h1.435v1.434h-1.43v1.435h1.434v2.86h2.87v7.89h-1.43v1.43h1.43v1.43h-1.43v1.43h1.43v.71c0 1.98 1.61 3.59 3.58 3.59s3.58-1.61 3.58-3.59v-.72H52v-1.44h-1.43v-1.435h1.434v-1.43h-1.43v-7.89h2.87v-2.867h1.433v-1.434zm-11.476 2.87H41.98v-1.435h1.434v1.43zm0-2.87H41.98V266h1.434v1.434zm5.738 17.213c0 1.186-.966 2.152-2.152 2.152s-2.152-.97-2.152-2.16v-.72h4.304v.71zm0-2.15h-4.304v-1.436h4.304v1.44zm-2.87-20.8v17.93H44.85v-17.93h1.435zm-1.233-1.435l1.95-2.437 1.95 2.437h-3.9zm4.1 19.365h-1.44v-17.93h1.43v17.93zm2.87-9.324h-1.44v-1.434h1.43v1.43zm0-2.87h-1.44V266h1.43v1.434zm.23-4.17l-.24.212v1.09h-1.43v-4.554L47 255.53l-3.586 4.483v4.556H41.98v-1.09l-.238-.22c-1.672-1.5-2.63-3.64-2.63-5.87 0-4.35 3.538-7.89 7.888-7.89s7.89 3.54 7.89 7.89c0 2.23-.96 4.37-2.632 5.87z"/>
      <path d="M40.545 275.324h1.435v1.434h-1.435zm-2.87 0h1.436v1.434h-1.43zm-2.867 0h1.434v1.434h-1.434zm22.95 0h1.434v1.434h-1.434zm-2.868 0h1.434v1.434H54.89zm-2.87 0h1.435v1.434H52.02z"/>
    </g>
  </defs>
  <g fi:class="KUsePattern">
    <pattern id="b" width="350" height="350" patternUnits="userSpaceOnUse">
      <use xlink:href="#a" x="-350" y="-350"/>
      <use xlink:href="#a" y="-350"/>
      <use xlink:href="#a" x="350" y="-350"/>
      <use xlink:href="#a" x="-350"/>
      <use xlink:href="#a"/>
      <use xlink:href="#a" x="350"/>
      <use xlink:href="#a" x="-350" y="350"/>
      <use xlink:href="#a" y="350"/>
      <use xlink:href="#a" x="350" y="350"/>
    </pattern>
    <rect width="100%" height="100%" fill="url(#b)"/>
  </g>
  <g fi:class="KUsePattern">
    <pattern id="d" width="350" height="350" patternUnits="userSpaceOnUse">
      <use xlink:href="#c" x="-350" y="-350"/>
      <use xlink:href="#c" y="-350"/>
      <use xlink:href="#c" x="350" y="-350"/>
      <use xlink:href="#c" x="-350"/>
      <use xlink:href="#c"/>
      <use xlink:href="#c" x="350"/>
      <use xlink:href="#c" x="-350" y="350"/>
      <use xlink:href="#c" y="350"/>
      <use xlink:href="#c" x="350" y="350"/>
    </pattern>
    <rect width="100%" height="100%" fill="url(#d)"/>
  </g>
  <g fi:class="KUsePattern">
    <pattern id="f" width="350" height="350" patternUnits="userSpaceOnUse">
      <use xlink:href="#e" x="-350" y="-350"/>
      <use xlink:href="#e" y="-350"/>
      <use xlink:href="#e" x="350" y="-350"/>
      <use xlink:href="#e" x="-350"/>
      <use xlink:href="#e"/>
      <use xlink:href="#e" x="350"/>
      <use xlink:href="#e" x="-350" y="350"/>
      <use xlink:href="#e" y="350"/>
      <use xlink:href="#e" x="350" y="350"/>
    </pattern>
    <rect width="100%" height="100%" fill="url(#f)"/>
  </g>
  <g fi:class="KUsePattern">
    <pattern id="h" width="350" height="350" patternUnits="userSpaceOnUse">
      <use xlink:href="#g" x="-350" y="-350"/>
      <use xlink:href="#g" y="-350"/>
      <use xlink:href="#g" x="350" y="-350"/>
      <use xlink:href="#g" x="-350"/>
      <use xlink:href="#g"/>
      <use xlink:href="#g" x="350"/>
      <use xlink:href="#g" x="-350" y="350"/>
      <use xlink:href="#g" y="350"/>
      <use xlink:href="#g" x="350" y="350"/>
    </pattern>
    <rect width="100%" height="100%" fill="url(#h)"/>
  </g>
  <g fi:class="KUsePattern">
    <pattern id="j" width="350" height="350" patternUnits="userSpaceOnUse">
      <use xlink:href="#i" x="-350" y="-350"/>
      <use xlink:href="#i" y="-350"/>
      <use xlink:href="#i" x="350" y="-350"/>
      <use xlink:href="#i" x="-350"/>
      <use xlink:href="#i"/>
      <use xlink:href="#i" x="350"/>
      <use xlink:href="#i" x="-350" y="350"/>
      <use xlink:href="#i" y="350"/>
      <use xlink:href="#i" x="350" y="350"/>
    </pattern>
    <rect width="100%" height="100%" fill="url(#j)"/>
  </g>
</svg>