<svg xmlns="http://www.w3.org/2000/svg" viewBox="0 0 512 512">
  <path d="M320 85.333c0 11.797 9.536 21.333 21.333 21.333h21.333c11.797 0 21.333-9.536 21.333-21.333C384 73.536 374.46 64 362.66 64h-21.33C329.537 64 320 73.536 320 85.333zm-85.333 21.334H256c11.797 0 21.333-9.536 21.333-21.333C277.333 73.536 267.797 64 256 64V42.667c0-11.797-9.536-21.333-21.333-21.333-11.797 0-21.333 9.536-21.333 21.333V64c0 3.968 1.387 7.488 3.264 10.667-1.877 3.18-3.264 6.7-3.264 10.667 0 11.797 9.535 21.333 21.333 21.333zm67.063-64h21.333c11.797 0 21.333-9.536 21.333-21.333C344.396 9.536 334.86 0 323.063 0H301.73c-11.797 0-21.333 9.536-21.333 21.333 0 11.798 9.536 21.334 21.333 21.334zM234.667 192c11.797 0 21.333-9.536 21.333-21.333v-21.333c0-11.797-9.536-21.333-21.333-21.333-11.797 0-21.333 9.54-21.333 21.34v21.34c0 11.797 9.535 21.333 21.333 21.333zM451.063 21.333C451.063 9.536 441.527 0 429.73 0h-21.333c-11.797 0-21.333 9.536-21.333 21.333 0 11.797 9.536 21.333 21.333 21.333h21.333c11.797 0 21.333-9.535 21.333-21.333zm39.604 12.187c-11.797 0-21.333 9.537-21.333 21.334v9.152H448c-11.797 0-21.333 9.536-21.333 21.333 0 11.77 9.536 21.33 21.333 21.33h21.333c7.488 0 13.76-4.08 17.557-9.92 1.28.23 2.432.77 3.776.77 11.797 0 21.334-9.54 21.334-21.34V54.85c0-11.798-9.538-21.334-21.335-21.334zm14.583 199.438c-.107-.15-.235-.256-.34-.405-1.708-2.603-3.713-4.992-5.953-7.147-.853-.81-1.792-1.472-2.688-2.22-1.56-1.28-3.18-2.495-4.93-3.54-1.09-.66-2.2-1.26-3.35-1.813-1.86-.94-3.82-1.664-5.83-2.304-1.05-.35-2.05-.73-3.14-.99-3.116-.73-6.337-1.22-9.708-1.22h-21.33V512h21.333c23.53 0 42.667-19.137 42.667-42.668V255.998c0-8.192-2.43-15.787-6.44-22.293-.15-.235-.15-.512-.3-.747zm-14.583-92.77c-11.797 0-21.333 9.536-21.333 21.333v21.34c0 11.8 9.536 21.34 21.333 21.34S512 194.65 512 182.858V161.52c0-11.796-9.536-21.332-21.333-21.332zM164.395 70.225L121.75 27.58c-8.342-8.32-21.825-8.32-30.166 0-8.34 8.34-8.34 21.845 0 30.165l6.89 6.89c-48.34 3.222-77.14 34.134-77.14 84.694 0 11.79 9.536 21.33 21.333 21.33 11.797 0 21.333-9.54 21.333-21.33 0-26.54 10.112-39.54 33.28-42.12l-5.696 5.693c-8.34 8.34-8.34 21.845 0 30.165 4.16 4.18 9.62 6.25 15.083 6.25 5.46 0 10.923-2.07 15.083-6.25l42.645-42.646c1.963-1.96 3.54-4.33 4.63-6.953 2.154-5.205 2.154-11.07 0-16.3-1.09-2.62-2.668-4.99-4.63-6.953zm198.272 143.108h-192V512h234.666V213.333H384M0 256v213.333C0 492.863 19.136 512 42.667 512H128V213.333H42.667C19.137 213.333 0 232.47 0 256zm85.333 85.333c11.776 0 21.333 9.557 21.333 21.333S97.11 384 85.333 384 64 374.443 64 362.667s9.557-21.334 21.333-21.334z"/>
</svg>